# xmcd CD database file
#
# Track frame offsets:
#	150
#	54220
#	75826
#	108016
#	130676
#	161783
#	189353
#	223055
#	241687
#
# Disc length: 3660 seconds
#
# Revision: 2
# Processed by: cddbd v1.5.2PL0 Copyright (c) Steve Scherf et al.
# Submitted via: CDex 1.51
#
DISCID=620e4a09
DTITLE=Charles Atlas [S Galvagna,C Wyatt,M Greenberg] - Worsted Weight
DYEAR=2002
DGENRE=Experimental
TTITLE0=The Deadest Bar [vo+saw Denise Bon Giovanni]
TTITLE1=One Foot Under
TTITLE2=Sun With Teeth
TTITLE3=Elysium [g Sean Coleman]
TTITLE4=Italian Air
TTITLE5=Antiphon
TTITLE6=Factotum
TTITLE7=Strategies For Success Boxes
TTITLE8=Port, Noise Complaint
EXTD=YEAR: 2002
EXTT0=
EXTT1=
EXTT2=
EXTT3=
EXTT4=
EXTT5=
EXTT6=
EXTT7=
EXTT8=
PLAYORDER=
